<svg xmlns="http://www.w3.org/2000/svg" viewBox="0 0 64 64" role="img" aria-label="LeT WS">
  <rect width="64" height="64" fill="#14213d"/>
  <!-- Baked outlines — no font needed. Regenerate: tools/make-wordmark.py -->
  <g fill="#ffffff">
    <g transform="translate(9.361 28.938) scale(0.02341)">
      <path d="M70 -700V0H575V-185H290V-700Z"/>
      <path d="M923 10Q1019 10 1084.5 -26.5Q1150 -63 1187 -137L1009 -165Q997 -143 973.0 -131.5Q949 -120 913 -120Q886 -120 867.5 -133.0Q849 -146 839.5 -170.5Q830 -195 831 -230Q831 -272 839.0 -298.5Q847 -325 864.0 -337.5Q881 -350 908 -350Q928 -350 942.5 -341.0Q957 -332 965.0 -315.0Q973 -298 973 -274Q973 -267 969.0 -257.0Q965 -247 959 -238L997 -284H741V-190H1178Q1180 -201 1180.0 -213.5Q1180 -226 1180 -239Q1180 -314 1149.5 -365.5Q1119 -417 1059.5 -443.5Q1000 -470 913 -470Q825 -470 763.0 -441.5Q701 -413 668.0 -359.5Q635 -306 635 -230Q635 -155 669.5 -101.5Q704 -48 768.5 -19.0Q833 10 923 10Z"/>
      <path d="M1244 -505H1444V0H1664V-505H1864V-700H1244Z"/>
    </g>
    <g transform="translate(11.199 50.397) scale(0.02341)">
      <path d="M737 -371 555 -735 373 -371 265 -700H0L320 45L555 -303L790 45L1110 -700H845Z"/>
      <path d="M1318 -266 1170 -158Q1194 -105 1241.0 -62.0Q1288 -19 1352.5 5.5Q1417 30 1492 30Q1546 30 1597.0 15.0Q1648 0 1688.5 -29.0Q1729 -58 1753.0 -102.5Q1777 -147 1777 -205Q1777 -246 1765.0 -279.5Q1753 -313 1729.5 -340.0Q1706 -367 1673.0 -387.5Q1640 -408 1598 -423Q1557 -438 1523.0 -449.5Q1489 -461 1468.5 -474.5Q1448 -488 1448 -509Q1448 -526 1462.5 -534.0Q1477 -542 1500 -542Q1519 -542 1539.0 -535.0Q1559 -528 1578.5 -513.5Q1598 -499 1614 -474L1777 -564Q1758 -600 1721.5 -636.0Q1685 -672 1628.5 -696.0Q1572 -720 1493 -720Q1420 -720 1359.0 -696.0Q1298 -672 1261.0 -625.0Q1224 -578 1224 -509Q1224 -456 1243.5 -417.0Q1263 -378 1292.5 -351.0Q1322 -324 1354.5 -307.0Q1387 -290 1412 -280Q1469 -258 1497.0 -245.0Q1525 -232 1534.5 -222.0Q1544 -212 1544 -198Q1544 -175 1526.0 -164.5Q1508 -154 1482 -154Q1451 -154 1420.5 -167.0Q1390 -180 1364.0 -205.5Q1338 -231 1318 -266Z"/>
    </g>
  </g>
</svg>
